<?xml version="1.0" encoding="utf-8"?>
<!-- Generator: Adobe Illustrator 18.1.1, SVG Export Plug-In . SVG Version: 6.00 Build 0)  -->
<svg version="1.1" id="Layer_1" xmlns="http://www.w3.org/2000/svg" xmlns:xlink="http://www.w3.org/1999/xlink" x="0px" y="0px"
	 viewBox="0 0 79.2 31.6" enable-background="new 0 0 79.2 31.6" xml:space="preserve">
<g>
	<path opacity="0.2" fill="#020202" d="M25.8,31.6h-13c-0.7,0-1.2-0.6-1.2-1.2v0c0-0.7,0.6-1.2,1.2-1.2h13c0.7,0,1.2,0.6,1.2,1.2v0
		C27,31,26.5,31.6,25.8,31.6z"/>
	<path opacity="0.2" fill="#020202" d="M67,31.6H54c-0.7,0-1.2-0.6-1.2-1.2v0c0-0.7,0.6-1.2,1.2-1.2h13c0.7,0,1.2,0.6,1.2,1.2v0
		C68.2,31,67.7,31.6,67,31.6z"/>
	<path fill="#352E2F" d="M68.7,11.4H10.5c-2.6,0-4.7,2.1-4.7,4.7v0c0,2.6,2.1,4.7,4.7,4.7h58.2c2.6,0,4.7-2.1,4.7-4.7v0
		C73.4,13.5,71.3,11.4,68.7,11.4z"/>
	<g>
		<g>
			<g>
				<circle fill="#352E2F" cx="19.1" cy="22.3" r="7.9"/>
				
					<circle fill="none" stroke="#352E2F" stroke-linecap="square" stroke-miterlimit="10" stroke-dasharray="1.6481,1.6481" cx="19.1" cy="22.3" r="7.9"/>
			</g>
			<circle fill="#6C6F72" cx="19.1" cy="22.3" r="6.6"/>
			<circle fill="#352E2F" cx="19.1" cy="22.3" r="4"/>
			
				<linearGradient id="SVGID_1_" gradientUnits="userSpaceOnUse" x1="-408.6036" y1="4590.6577" x2="-403.1528" y2="4590.6577" gradientTransform="matrix(-0.7071 0.7071 -0.7071 -0.7071 2978.1816 3555.3423)">
				<stop  offset="0.5" style="stop-color:#FFFFFF"/>
				<stop  offset="0.5" style="stop-color:#999999"/>
			</linearGradient>
			<circle fill="url(#SVGID_1_)" cx="19.1" cy="22.3" r="2.7"/>
		</g>
		<g>
			
				<circle fill="#352E2F" stroke="#352E2F" stroke-linecap="square" stroke-miterlimit="10" stroke-dasharray="1.6" cx="60.1" cy="22.3" r="7.9"/>
			<circle fill="#6C6F72" cx="60.1" cy="22.3" r="6.6"/>
			<circle fill="#352E2F" cx="60.1" cy="22.3" r="4"/>
			
				<linearGradient id="SVGID_2_" gradientUnits="userSpaceOnUse" x1="-437.5431" y1="4561.7178" x2="-432.0922" y2="4561.7178" gradientTransform="matrix(-0.7071 0.7071 -0.7071 -0.7071 2978.1816 3555.3423)">
				<stop  offset="0.5" style="stop-color:#FFFFFF"/>
				<stop  offset="0.5" style="stop-color:#999999"/>
			</linearGradient>
			<circle fill="url(#SVGID_2_)" cx="60.1" cy="22.3" r="2.7"/>
		</g>
	</g>
	<g>
		<path fill="#4CAF50" d="M70.7,22.5l-1.2-4c-0.9-2.6-2.1-5.1-5.2-5.1h-8c-2.4,0-4.2,1.8-5.2,5.1l-1.2,4H29.4l-1.2-4
			c-0.9-2.6-2.1-5.1-5.2-5.1h-8c-2.4,0-4.2,1.8-5.2,5.1l-1.2,4H2.9L0.8,0.9h77.5l-2.1,21.5H70.7z"/>
		<linearGradient id="SVGID_3_" gradientUnits="userSpaceOnUse" x1="63.8413" y1="-13.6015" x2="15.3552" y2="34.884">
			<stop  offset="0.5" style="stop-color:#FFFFFF"/>
			<stop  offset="0.5" style="stop-color:#999999"/>
		</linearGradient>
		<path opacity="0.14" fill="url(#SVGID_3_)" d="M70.7,22.5l-1.2-4c-0.9-2.6-2.1-5.1-5.2-5.1h-8c-2.4,0-4.2,1.8-5.2,5.1l-1.2,4H29.4
			l-1.2-4c-0.9-2.6-2.1-5.1-5.2-5.1h-8c-2.4,0-4.2,1.8-5.2,5.1l-1.2,4H2.9L0.8,0.9h77.5l-2.1,21.5H70.7z"/>
		<path fill="#352E2F" d="M77.6,2.2l-1.9,19.9h-4.4l-1.1-3.7c0,0,0-0.4,0-0.4c-1-2.7-2.3-5.9-5.9-5.9h-8c-2.8,0-4.7,2.4-5.9,6.1
			l-1.1,3.9H29.9l-1.1-3.7c0,0,0-0.4,0-0.4c-1-2.7-2.3-5.9-5.9-5.9h-8c-2.8,0-4.7,2.4-5.9,6.1L8,22.1H3.6l-1.9-20L77.6,2.2
			 M79.2,0.1L79.2,0.1L79.2,0.1z M79.2,0.1H0l2.3,23H9l1.4-4.4c0.8-2.4,2-4.6,4.5-4.6h8c2.5,0,3.5,1.8,4.5,4.6l1.4,4.4h21.4l1.4-4.4
			c0.8-2.4,2-4.6,4.5-4.6h8c2.5,0,3.5,1.8,4.5,4.6l1.4,4.4h6.7L79.2,0V0.1z"/>
	</g>
</g>
</svg>
