<svg version="1.1" id="Layer_1" xmlns="http://www.w3.org/2000/svg" xmlns:xlink="http://www.w3.org/1999/xlink" x="0px" y="0px"
	 viewBox="0 0 95.6 38" enable-background="new 0 0 95.6 38" xml:space="preserve">
<g>
	<path opacity="0.2" fill="#020202" d="M31.1,38H15.4c-0.8,0-1.5-0.7-1.5-1.5v0c0-0.8,0.7-1.5,1.5-1.5h15.7c0.8,0,1.5,0.7,1.5,1.5v0
		C32.6,37.3,31.9,38,31.1,38z"/>
	<path opacity="0.2" fill="#020202" d="M80.8,38H65.1c-0.8,0-1.5-0.7-1.5-1.5v0c0-0.8,0.7-1.5,1.5-1.5h15.7c0.8,0,1.5,0.7,1.5,1.5v0
		C82.3,37.3,81.6,38,80.8,38z"/>
	<path fill="#352E2F" d="M82.9,13.7H12.7c-3.1,0-5.7,2.6-5.7,5.7v0c0,3.1,2.6,5.7,5.7,5.7h70.2c3.1,0,5.7-2.6,5.7-5.7v0
		C88.6,16.2,86,13.7,82.9,13.7z"/>
	<g>
		<g>
			<circle fill="#352E2F" cx="23.1" cy="26.8" r="9.5"/>
			<circle fill="#6C6F72" cx="23.1" cy="26.8" r="8"/>
			<circle fill="#352E2F" cx="23.1" cy="26.8" r="4.9"/>
			
				<linearGradient id="SVGID_1_" gradientUnits="userSpaceOnUse" x1="-408.7147" y1="4584.5093" x2="-402.1369" y2="4584.5093" gradientTransform="matrix(-0.7071 0.7071 -0.7071 -0.7071 2978.1099 3555.1687)">
				<stop  offset="0.5" style="stop-color:#FFFFFF"/>
				<stop  offset="0.5" style="stop-color:#999999"/>
			</linearGradient>
			<circle fill="url(#SVGID_1_)" cx="23.1" cy="26.8" r="3.3"/>
		</g>
		<g>
			<circle fill="#352E2F" cx="72.5" cy="26.8" r="9.5"/>
			<circle fill="#6C6F72" cx="72.5" cy="26.8" r="8"/>
			<circle fill="#352E2F" cx="72.5" cy="26.8" r="4.9"/>
			
				<linearGradient id="SVGID_2_" gradientUnits="userSpaceOnUse" x1="-443.6367" y1="4549.5869" x2="-437.059" y2="4549.5869" gradientTransform="matrix(-0.7071 0.7071 -0.7071 -0.7071 2978.1099 3555.1687)">
				<stop  offset="0.5" style="stop-color:#FFFFFF"/>
				<stop  offset="0.5" style="stop-color:#999999"/>
			</linearGradient>
			<circle fill="url(#SVGID_2_)" cx="72.5" cy="26.8" r="3.3"/>
		</g>
	</g>
	<g>
		<path fill="#EA823C" d="M85.3,27l-1.5-4.8c-1.1-3.1-2.5-6.2-6.3-6.2h-9.7c-2.9,0-5,2.1-6.3,6.2L60.1,27H35.5L34,22.2
			c-1.1-3.1-2.5-6.2-6.3-6.2H18c-2.9,0-5,2.1-6.3,6.2L10.2,27H3.6L1,1h93.6L92,27H85.3z"/>
		<linearGradient id="SVGID_3_" gradientUnits="userSpaceOnUse" x1="77.039" y1="-16.536" x2="18.5296" y2="41.9728">
			<stop  offset="0.5" style="stop-color:#FFFFFF"/>
			<stop  offset="0.5" style="stop-color:#999999"/>
		</linearGradient>
		<path opacity="0.3" fill="url(#SVGID_3_)" d="M85.3,27l-1.5-4.8c-1.1-3.1-2.5-6.2-6.3-6.2h-9.7c-2.9,0-5,2.1-6.3,6.2L60.1,27H35.5
			L34,22.2c-1.1-3.1-2.5-6.2-6.3-6.2H18c-2.9,0-5,2.1-6.3,6.2L10.2,27H3.6L1,1h93.6L92,27H85.3z"/>
		<path fill="#352E2F" d="M93.6,2.1L91.3,26H86l-1.3-4.2c0,0,0-0.1,0-0.1c-1.2-3.2-2.8-6.7-7.1-6.7h-9.7c-3.3,0-5.7,2.3-7.1,6.8
			L59.4,26H36.1l-1.3-4.2c0,0,0-0.1,0-0.1c-1.2-3.2-2.8-6.7-7.1-6.7H18c-3.3,0-5.7,2.3-7.1,6.8L9.6,26H4.3L2,2L93.6,2.1 M95.6,0
			L95.6,0L95.6,0z M95.6,0H0l2.8,28h8.1l1.7-5.4C13.5,19.7,15,17,18,17h9.7c3,0,4.3,2.2,5.5,5.6l1.7,5.4h25.8l1.7-5.4
			c0.9-2.9,2.5-5.6,5.5-5.6h9.7c3,0,4.3,2.2,5.5,5.6l1.7,5.4h8.1L95.6,0L95.6,0z"/>
	</g>
</g>
</svg>
